<?xml version="1.0" encoding="UTF-8" standalone="no"?>
<svg width="100px" height="87px" viewBox="0 0 100 87" version="1.1" xmlns="http://www.w3.org/2000/svg" xmlns:xlink="http://www.w3.org/1999/xlink" xmlns:sketch="http://www.bohemiancoding.com/sketch/ns">
    <!-- Generator: Sketch 3.1.1 (8761) - http://www.bohemiancoding.com/sketch -->
    <title>Slice 2</title>
    <desc>Created with Sketch.</desc>
    <defs></defs>
    <g id="Page-1" stroke="none" stroke-width="1" fill="none" fill-rule="evenodd" sketch:type="MSPage">
        <g id="world_plane" sketch:type="MSLayerGroup" fill="#F5F5F5">
            <path d="M39.74,2.399 L39.485,1.299 C40.964,0.955 42.474,0.68 43.975,0.469 L44.133,1.59 C42.664,1.793 41.185,2.068 39.74,2.399 L39.74,2.399 Z" id="Shape" sketch:type="MSShapeGroup"></path>
            <path d="M61.917,2.333 C60.475,2.005 58.998,1.746 57.514,1.556 L57.664,0.434 C59.179,0.629 60.691,0.898 62.161,1.229 L61.917,2.333 L61.917,2.333 Z" id="Shape" sketch:type="MSShapeGroup"></path>
            <path d="M48.589,1.184 L48.536,0.055 C50.06,-0.016 51.607,-0.016 53.108,0.044 L53.066,1.176 C51.574,1.114 50.075,1.114 48.589,1.184 L48.589,1.184 Z" id="Shape" sketch:type="MSShapeGroup"></path>
            <path d="M7.252,77.205 C8.036,78.511 8.885,79.791 9.777,81.014 L10.691,80.345 C9.819,79.153 8.987,77.904 8.218,76.623 L7.252,77.205 L7.252,77.205 Z" id="Shape" sketch:type="MSShapeGroup"></path>
            <path d="M3.267,68.983 C3.807,70.414 4.413,71.828 5.073,73.182 L6.088,72.689 C5.446,71.365 4.852,69.982 4.322,68.587 L3.267,68.983 L3.267,68.983 Z" id="Shape" sketch:type="MSShapeGroup"></path>
            <path d="M0.826,60.179 C1.101,61.677 1.443,63.178 1.848,64.634 L2.938,64.333 C2.542,62.906 2.207,61.44 1.938,59.975 L0.826,60.179 L0.826,60.179 Z" id="Shape" sketch:type="MSShapeGroup"></path>
            <path d="M1.13,51.082 L0,51.082 C0.002,52.6 0.073,54.136 0.21,55.651 L1.335,55.549 C1.2,54.065 1.131,52.564 1.13,51.082 L1.13,51.082 Z" id="Shape" sketch:type="MSShapeGroup"></path>
            <path d="M1.906,42.183 L0.793,41.983 C0.529,43.476 0.326,44.998 0.193,46.518 L1.318,46.614 C1.449,45.129 1.645,43.637 1.906,42.183 L1.906,42.183 Z" id="Shape" sketch:type="MSShapeGroup"></path>
            <path d="M4.255,33.562 L3.196,33.169 C2.663,34.604 2.191,36.065 1.794,37.518 L2.885,37.817 C3.274,36.398 3.736,34.967 4.255,33.562 L4.255,33.562 Z" id="Shape" sketch:type="MSShapeGroup"></path>
            <path d="M8.117,25.509 L7.145,24.932 C6.369,26.234 5.643,27.59 4.985,28.963 L6.004,29.448 C6.647,28.111 7.358,26.781 8.117,25.509 L8.117,25.509 Z" id="Shape" sketch:type="MSShapeGroup"></path>
            <path d="M9.661,21.114 L10.576,21.776 C11.447,20.574 12.383,19.397 13.358,18.276 L12.505,17.533 C11.506,18.677 10.55,19.885 9.661,21.114 L9.661,21.114 Z" id="Shape" sketch:type="MSShapeGroup"></path>
            <path d="M19.088,11.207 C17.909,12.15 16.752,13.166 15.655,14.217 L16.437,15.038 C17.512,14.004 18.644,13.007 19.794,12.089 L19.088,11.207 L19.088,11.207 Z" id="Shape" sketch:type="MSShapeGroup"></path>
            <path d="M86.074,14.006 C84.979,12.964 83.818,11.958 82.627,11.008 L81.92,11.896 C83.092,12.822 84.225,13.807 85.299,14.826 L86.074,14.006 L86.074,14.006 Z" id="Shape" sketch:type="MSShapeGroup"></path>
            <path d="M27.234,7.137 L26.694,6.148 C25.37,6.863 24.053,7.657 22.778,8.505 L23.406,9.441 C24.651,8.614 25.939,7.842 27.234,7.137 L27.234,7.137 Z" id="Shape" sketch:type="MSShapeGroup"></path>
            <path d="M78.917,8.329 C77.651,7.498 76.332,6.713 74.982,5.993 L74.454,6.99 C75.764,7.69 77.059,8.46 78.3,9.272 L78.917,8.329 L78.917,8.329 Z" id="Shape" sketch:type="MSShapeGroup"></path>
            <path d="M35.434,3.599 L35.08,2.527 C33.625,3.004 32.186,3.551 30.808,4.148 L31.254,5.186 C32.604,4.601 34.013,4.071 35.434,3.599 L35.434,3.599 Z" id="Shape" sketch:type="MSShapeGroup"></path>
            <path d="M70.862,4.023 C69.47,3.437 68.028,2.898 66.574,2.43 L66.229,3.507 C67.652,3.962 69.06,4.488 70.42,5.066 L70.862,4.023 L70.862,4.023 Z" id="Shape" sketch:type="MSShapeGroup"></path>
            <path d="M99.129,26.774 L96.413,24.063 L97.53,14.826 L96.289,13.596 L93.092,20.735 L91.242,18.889 C91.081,18.726 90.863,18.602 90.633,18.528 L91.257,15.445 L90.265,14.452 L88.789,17.909 L85.334,19.383 L86.323,20.377 L89.41,19.753 C89.485,19.982 89.609,20.199 89.772,20.363 L91.622,22.213 L84.478,25.414 L85.705,26.65 L94.95,25.538 L97.657,28.249 C98.157,28.756 98.819,29.065 99.53,29.116 C99.654,29.116 99.777,29.08 99.869,28.992 C99.953,28.903 100.007,28.781 99.998,28.657 C99.946,27.94 99.636,27.278 99.129,26.774 L99.129,26.774 Z" id="Shape" sketch:type="MSShapeGroup"></path>
            <path d="M51.09,15.112 C32.837,15.112 17.989,29.96 17.989,48.213 C17.989,66.464 32.837,81.314 51.09,81.314 C69.341,81.314 84.191,66.464 84.191,48.213 C84.191,29.96 69.341,15.112 51.09,15.112 L51.09,15.112 Z M78.073,53.609 C78.674,54.216 78.943,54.776 79.064,55.383 C75.867,67.848 64.537,77.089 51.09,77.089 C46.111,77.089 41.424,75.822 37.331,73.595 C37.372,73.416 37.412,73.234 37.452,73.04 C37.696,71.863 39.515,71.298 40.296,70.519 C41.057,69.757 42.571,69.296 43.041,68.3 C43.349,67.647 42.913,66.81 43.175,66.201 C43.374,65.743 44.133,65.244 44.489,64.887 C45.383,63.993 46.053,61.667 46.053,60.445 L42.041,60.445 C40.774,60.445 41.02,58.947 41.015,58.016 C41.014,57.516 41.046,56.905 40.803,56.448 C40.526,55.928 39.629,56.08 39.148,55.836 C38.311,55.411 37.617,54.579 37.453,53.644 C37.345,53.031 37.367,52.582 36.596,52.612 C35.838,52.644 35.134,53.251 34.429,53.251 L31.774,53.251 L25.905,53.251 C25.905,53.568 25.725,54.6 26.014,54.745 C26.737,55.105 27.459,55.467 28.181,55.828 C29.259,56.368 29.575,57.717 30.102,58.769 C30.62,59.805 31.207,60.823 31.661,61.885 C32.223,63.199 32.631,64.662 33.654,65.718 C34.085,66.163 34.921,66.072 35.104,66.685 C35.336,67.455 35.097,68.395 34.92,69.153 C34.724,69.992 34.478,70.821 34.261,71.655 C28.295,67.359 24.032,60.848 22.68,53.336 C23.082,53.305 23.485,53.251 23.719,53.251 C24.499,53.251 24.523,53.193 25.088,52.63 C25.583,52.135 25.905,51.988 25.905,51.306 L25.905,48.934 C26.865,49.413 27.823,49.894 28.783,50.372 C28.825,49.209 29.656,49.06 30.614,48.899 C31.752,48.711 32.501,47.494 33.555,47.494 C34.424,47.494 34.785,47.66 35.601,47.924 C36.029,48.065 36.566,48.228 37.013,48.089 C37.614,47.901 37.472,46.828 37.68,46.346 C37.979,45.649 38.434,44.663 39.24,44.596 C40.116,44.526 41.252,44.131 40.296,43.177 C39.247,42.128 38.463,40.79 37.754,39.497 C37.451,38.942 37.375,38.067 36.864,37.684 C35.748,36.846 34.072,37.982 33.234,38.734 C32.763,39.159 33.502,40.136 32.855,40.409 C31.803,40.855 30.43,41.213 29.344,40.694 C28.752,40.411 28.386,39.717 27.714,39.593 C27.25,39.509 27.344,39.379 27.344,38.859 L27.344,36.228 C27.344,35.864 27.445,36.007 27.776,35.912 C29.079,35.538 28.31,33.842 29.601,33.821 C31.098,33.796 29.62,31.245 29.215,30.725 C28.988,30.433 28.762,30.302 28.515,30.243 C33.81,23.605 41.959,19.34 51.091,19.34 C59.402,19.34 66.9,22.874 72.173,28.513 C70.621,30.199 68.953,32.118 67.819,32.969 C67.041,33.552 66.033,33.906 65.164,34.34 C64.297,34.775 63.121,34.542 62.171,34.542 C61.924,34.542 59.006,34.502 59.006,34.578 C59.006,35.443 59.439,37.203 58.604,37.622 C57.607,38.12 56.488,38.5 55.695,39.291 C55.47,39.516 54.549,40.158 54.814,40.424 C54.815,40.425 54.816,40.426 54.818,40.427 C54.673,40.349 54.524,40.299 54.369,40.304 C53.24,40.342 51.839,40.39 50.855,41.012 C50.231,41.406 50.4,42.002 50.317,42.657 C50.223,43.393 49.992,44.172 49.463,44.717 C48.831,45.369 48.932,45.476 48.932,46.534 C50.051,46.41 51.172,46.285 52.294,46.162 C52.426,46.144 53.249,46.14 53.249,45.993 C53.249,45.715 53.092,44.773 53.283,44.582 C53.707,44.158 54.136,43.729 54.563,43.302 C54.822,43.043 55.293,43.782 55.505,43.995 C55.895,44.384 56.276,44.467 55.862,44.877 C55.471,45.271 55.078,45.664 54.687,46.055 C54.861,46.055 56.124,46.102 56.127,46.022 C56.178,44.948 56.828,43.914 57.565,43.177 C58.361,42.381 59.452,42.372 60.31,43.06 C60.657,43.34 60.444,44.239 60.444,44.616 C60.444,44.869 60.374,47.494 60.506,47.494 C61.139,47.494 61.691,47.64 62.176,47.229 C63.843,45.826 66.024,46.162 67.64,44.616 C68.119,45.575 68.6,46.534 69.079,47.494 C67.936,47.876 66.792,48.256 65.649,48.637 C65.559,48.666 64.787,48.983 64.747,48.906 C64.486,48.393 64.208,47.867 63.853,47.411 C63.381,46.804 63.263,47.331 63.356,47.889 C63.507,48.811 64.092,49.674 64.727,50.34 C65.393,51.038 65.766,52.383 66.2,53.252 C66.11,51.483 68.685,54.297 69.079,54.69 C69.687,54.082 70.299,53.47 70.906,52.864 L71.811,51.959 C72.055,51.714 71.783,51.644 71.595,51.38 C70.579,49.96 73.188,50.373 73.981,50.373 C75.479,50.373 76.618,50.764 77.713,51.812 C76.322,51.74 77.753,53.287 78.073,53.609 L78.073,53.609 Z" id="Shape" sketch:type="MSShapeGroup"></path>
            <path d="M52.289,37.419 C51.971,37.739 51.649,38.058 51.331,38.379 C51.003,38.499 50.461,38.522 50.441,38.9 C50.417,39.367 50.396,39.831 50.371,40.298 C50.998,39.985 51.625,39.671 52.251,39.359 C52.451,39.258 52.289,37.697 52.289,37.419 L52.289,37.419 Z" id="Shape" sketch:type="MSShapeGroup"></path>
            <path d="M55.143,35.98 C55.5,35.98 56.127,36.18 56.127,35.755 L56.127,35.728 C56.196,35.865 56.32,35.951 56.513,35.969 C56.398,36.453 56.272,36.937 56.127,37.42 C56.565,36.982 57.001,36.545 57.44,36.106 C57.734,35.812 57.565,35.076 57.565,34.686 L57.565,34.48 L57.565,31.663 C57.538,31.718 57.49,31.807 57.433,31.911 C57.415,31.708 57.406,31.509 57.385,31.304 C57.329,31.641 57.274,31.975 57.218,32.31 C56.85,32.998 56.321,34.043 56.126,34.844 L56.126,34.481 L56.126,31.664 C55.836,32.244 53.612,35.98 55.143,35.98 L55.143,35.98 Z" id="Shape" sketch:type="MSShapeGroup"></path>
            <path d="M68.034,58.973 C68.974,58.816 69.839,58.217 70.519,57.568 C69.452,57.213 68.388,56.857 67.32,56.502 C66.126,56.104 66.123,55.975 65.545,54.816 C65.092,53.907 64.779,53.267 64.074,52.562 C63.559,52.047 61.884,50.902 61.884,50.147 C61.884,48.998 62.107,48.933 61.031,48.933 L56.987,48.933 L50.371,48.933 C49.501,49.815 48.657,50.774 48.018,51.839 C46.881,53.734 48.303,54.681 49.548,56.044 C50.88,57.501 50.364,59.975 52.856,60.412 C53.745,60.566 54.75,60.445 55.65,60.445 C55.757,60.445 57.73,60.167 57.54,59.821 C57.749,60.196 57.634,61.238 57.708,61.693 C57.877,62.714 58.098,63.728 58.324,64.737 C58.591,65.94 59.007,67.127 59.007,68.361 C59.007,69.63 60.328,70.401 61.196,71.27 C61.526,71.6 61.715,71.958 62.184,71.958 L64.622,71.958 C65.026,71.958 64.272,66.966 65.551,66.335 C65.916,66.155 66.638,66.356 66.854,65.939 C67.003,65.656 66.84,65.308 66.989,65.026 C67.347,64.336 68.192,65.01 68.274,63.874 C68.338,62.952 68.175,61.049 67.525,60.319 C66.734,59.431 66.98,59.15 68.034,58.973 L68.034,58.973 Z" id="Shape" sketch:type="MSShapeGroup"></path>
            <path d="M46.035,28.767 C45.303,28.044 44.514,27.359 43.668,26.771 C42.525,25.977 41.664,25.906 40.296,25.906 C39.642,25.906 38.975,25.861 38.323,25.914 C38.042,25.937 38.151,26.251 38.07,26.459 C37.579,27.715 35.538,29.224 34.539,30.223 C35.921,30.223 36.692,33.09 37.216,34.138 C37.531,34.767 37.418,35.421 37.418,36.124 C37.418,37.153 37.329,37.331 38.04,38.042 C38.746,38.748 38.686,39.031 39.383,38.334 L41.484,36.233 C41.944,35.771 41.735,35.023 41.735,34.397 C41.735,33.473 41.407,33.102 42.342,33.102 C43.06,33.102 43.734,33.166 44.312,32.67 C44.75,32.292 45.091,31.816 45.693,31.697 C46.361,31.565 47.773,31.326 47.491,30.223 C47.377,29.776 46.377,29.105 46.035,28.767 L46.035,28.767 Z" id="Shape" sketch:type="MSShapeGroup"></path>
        </g>
    </g>
</svg>